<svg width="20" height="20" viewBox="0 0 20 20" fill="none" xmlns="http://www.w3.org/2000/svg">
<path d="M2.29169 11.6667H17.7084M7.59169 14.8175V16.0417C7.59169 16.4837 7.41609 16.9076 7.10353 17.2202C6.79097 17.5327 6.36705 17.7083 5.92502 17.7083H5.42502M12.4084 14.8175V16.0417C12.4084 16.4837 12.5839 16.9076 12.8965 17.2202C13.2091 17.5327 13.633 17.7083 14.075 17.7083H14.575M5.42335 17.7083H14.5767M2.29169 5.20833C2.29169 4.43479 2.59898 3.69292 3.14596 3.14594C3.69294 2.59896 4.43481 2.29167 5.20835 2.29167H14.7917C15.5652 2.29167 16.3071 2.59896 16.8541 3.14594C17.4011 3.69292 17.7084 4.43479 17.7084 5.20833V11.9008C17.7084 12.6744 17.4011 13.4162 16.8541 13.9632C16.3071 14.5102 15.5652 14.8175 14.7917 14.8175H5.20835C4.43481 14.8175 3.69294 14.5102 3.14596 13.9632C2.59898 13.4162 2.29169 12.6744 2.29169 11.9008V5.20833Z" stroke="#EEEEEE" stroke-width="1.5" stroke-linecap="round" stroke-linejoin="round"/>
</svg>
