<svg width="111" height="102" viewBox="0 0 111 102" fill="none" xmlns="http://www.w3.org/2000/svg">
<path d="M55.6974 69.7894C74.9734 69.7894 90.5921 54.1707 90.5921 34.8947C90.5921 15.6187 74.9734 -6.65564e-05 55.6974 -6.65564e-05C36.4214 -6.65564e-05 20.8026 15.6187 20.8026 34.8947C20.8026 54.1707 36.4214 69.7894 55.6974 69.7894ZM51.973 16.3401V13.5216C51.973 11.9782 53.2145 10.7368 54.7579 10.7368H56.6201C58.1635 10.7368 59.4049 11.9782 59.4049 13.5216V16.3736C62.0053 16.5078 64.5217 17.397 66.6187 18.9572C67.5582 19.645 67.6589 21.0207 66.8201 21.8259L64.0855 24.4263C63.448 25.047 62.4918 25.0638 61.7368 24.594C60.8309 24.0236 59.8243 23.7384 58.7507 23.7384H52.2247C50.7148 23.7384 49.4901 25.1141 49.4901 26.8085C49.4901 28.1841 50.3289 29.4088 51.5201 29.7611L61.9717 32.8983C66.2832 34.1901 69.303 38.3338 69.303 42.9809C69.303 48.6848 64.874 53.2983 59.3882 53.4493V56.2677C59.3882 57.8111 58.1467 59.0526 56.6033 59.0526H54.7411C53.1977 59.0526 51.9562 57.8111 51.9562 56.2677V53.4157C49.3559 53.2815 46.8395 52.3924 44.7424 50.8322C43.803 50.1443 43.7023 48.7687 44.5411 47.9634L47.2757 45.3631C47.9132 44.7424 48.8694 44.7256 49.6243 45.1953C50.5303 45.7657 51.5368 46.0509 52.6105 46.0509H59.1365C60.6464 46.0509 61.871 44.6753 61.871 42.9809C61.871 41.6052 61.0322 40.3805 59.8411 40.0282L49.3895 36.8911C45.078 35.5993 42.0582 31.4555 42.0582 26.8085C42.075 21.1045 46.4872 16.4911 51.973 16.3401Z" fill="#9F7E8D"/>
<path d="M35.4316 69.0991C33.5977 67.4517 30.1203 67.1129 27.6809 68.3513C25.2415 69.5898 24.7398 71.9382 26.5737 73.5855L33.1652 79.5208C33.9956 80.2685 33.8745 81.3083 32.9057 81.9626L30.6912 83.4581C29.5321 84.2409 27.6463 84.1825 26.6083 83.3296L11.0724 70.7348V53.3964C11.0724 51.3285 8.59839 49.6577 5.53618 49.6577C2.47398 49.6577 0 51.3285 0 53.3964V78.9132C0 80.1867 0.640121 81.4252 1.81656 82.4183L19.8265 98.1092C20.6915 98.8686 21.2797 99.7332 21.6257 100.645C21.9371 101.451 23.0271 102 24.2727 102H47.0576C48.58 102 49.8257 101.159 49.8257 100.13V87.0449C49.8257 83.8086 48.2686 80.6657 45.3967 78.072L35.4316 69.0991ZM105.188 49.6577C102.125 49.6577 99.6513 51.3285 99.6513 53.3964V70.7348L84.1154 83.3296C83.0774 84.1708 81.1743 84.2292 80.0325 83.4581L77.818 81.9626C76.8492 81.3083 76.7281 80.2685 77.5585 79.5208L84.15 73.5855C85.9839 71.9382 85.4821 69.5898 83.0428 68.3513C80.6034 67.1129 77.126 67.4517 75.2921 69.0991L65.327 78.072C62.4551 80.6657 60.898 83.8086 60.898 87.0449V100.13C60.898 101.159 62.1437 102 63.6661 102H86.451C87.6793 102 88.7866 101.451 89.098 100.645C89.444 99.7332 90.0322 98.8686 90.8972 98.1092L108.907 82.4183C110.084 81.4252 110.724 80.1867 110.724 78.9132V53.3964C110.724 51.3285 108.25 49.6577 105.188 49.6577Z" fill="#9F7E8D"/>
</svg>
