<svg width="28" height="15" viewBox="0 0 28 15" fill="none" xmlns="http://www.w3.org/2000/svg">
<path d="M12.3743 5.59877L2.00495 0.192123C1.46126 -0.0913817 0.814996 0.171683 0.561433 0.779571L0.10204 1.88028C-0.151523 2.48817 0.0837592 3.21074 0.627448 3.49425L8.02208 7.34938L0.626093 11.206C0.0837591 11.4888 -0.150846 12.2095 0.10204 12.8158L0.55974 13.9135C0.812627 14.5199 1.4572 14.7822 1.99953 14.4994L12.3746 9.09015C12.5615 8.99272 12.7197 8.83768 12.8305 8.64324C12.9413 8.4488 13.0002 8.22303 13.0003 7.99247V6.69683C12.9999 6.22558 12.7562 5.79748 12.3743 5.59877Z" fill="#EEEEEE"/>
<path d="M27.3743 5.59877L17.0049 0.192123C16.4613 -0.0913817 15.815 0.171683 15.5614 0.779571L15.102 1.88028C14.8485 2.48817 15.0838 3.21074 15.6274 3.49425L23.0221 7.34938L15.6261 11.206C15.0838 11.4888 14.8492 12.2095 15.102 12.8158L15.5597 13.9135C15.8126 14.5199 16.4572 14.7822 16.9995 14.4994L27.3746 9.09015C27.5615 8.99272 27.7197 8.83768 27.8305 8.64324C27.9413 8.4488 28.0002 8.22303 28.0003 7.99247V6.69683C27.9999 6.22558 27.7562 5.79748 27.3743 5.59877Z" fill="#EEEEEE"/>
</svg>
