<svg width="106" height="74" viewBox="0 0 106 74" fill="none" xmlns="http://www.w3.org/2000/svg">
<path d="M15.8571 31.7143C21.6879 31.7143 26.4286 26.9737 26.4286 21.1429C26.4286 15.3121 21.6879 10.5714 15.8571 10.5714C10.0263 10.5714 5.28571 15.3121 5.28571 21.1429C5.28571 26.9737 10.0263 31.7143 15.8571 31.7143ZM89.8571 31.7143C95.688 31.7143 100.429 26.9737 100.429 21.1429C100.429 15.3121 95.688 10.5714 89.8571 10.5714C84.0263 10.5714 79.2857 15.3121 79.2857 21.1429C79.2857 26.9737 84.0263 31.7143 89.8571 31.7143ZM95.1429 37H84.5714C81.6643 37 79.0379 38.1728 77.1219 40.0723C83.7786 43.7228 88.5027 50.3134 89.5268 58.1429H100.429C103.352 58.1429 105.714 55.7808 105.714 52.8571V47.5714C105.714 41.7406 100.974 37 95.1429 37ZM52.8571 37C63.0817 37 71.3571 28.7246 71.3571 18.5C71.3571 8.27545 63.0817 0 52.8571 0C42.6326 0 34.3571 8.27545 34.3571 18.5C34.3571 28.7246 42.6326 37 52.8571 37ZM65.5429 42.2857H64.1719C60.7362 43.9375 56.9205 44.9286 52.8571 44.9286C48.7938 44.9286 44.9946 43.9375 41.5424 42.2857H40.1714C29.6661 42.2857 21.1429 50.8089 21.1429 61.3143V66.0714C21.1429 70.4487 24.6942 74 29.0714 74H76.6429C81.0201 74 84.5714 70.4487 84.5714 66.0714V61.3143C84.5714 50.8089 76.0482 42.2857 65.5429 42.2857ZM28.5924 40.0723C26.6763 38.1728 24.05 37 21.1429 37H10.5714C4.74063 37 0 41.7406 0 47.5714V52.8571C0 55.7808 2.36205 58.1429 5.28571 58.1429H16.171C17.2116 50.3134 21.9357 43.7228 28.5924 40.0723Z" fill="#9F7E8D"/>
</svg>
