<svg width="55" height="55" viewBox="0 0 55 55" fill="none" xmlns="http://www.w3.org/2000/svg">
<path d="M38.6713 18.85C38.4352 18.2385 38.0737 17.6833 37.61 17.22C37.1462 16.7568 36.5906 16.3958 35.9789 16.1604C35.1366 15.8484 34.2469 15.6835 33.3488 15.6729C31.8552 15.6049 31.4074 15.5879 27.6238 15.5879C23.8402 15.5879 23.3924 15.6049 21.8988 15.6729C20.9997 15.6832 20.109 15.8481 19.2659 16.1604C18.6544 16.3965 18.0991 16.758 17.6359 17.2218C17.1727 17.6855 16.8117 18.2411 16.5762 18.8528C16.2643 19.6951 16.0994 20.5848 16.0888 21.4829C16.0207 22.9765 16.0037 23.4243 16.0037 27.2079C16.0037 30.9915 16.0207 31.4393 16.0888 32.9329C16.0991 33.832 16.264 34.7227 16.5762 35.5659C16.8123 36.1773 17.1739 36.7326 17.6376 37.1958C18.1013 37.659 18.657 38.02 19.2687 38.2555C20.111 38.5674 21.0006 38.7323 21.8988 38.7429C23.3924 38.811 23.8402 38.8251 27.6238 38.8251C31.4074 38.8251 31.8552 38.811 33.3488 38.7401C34.2477 38.7307 35.1384 38.5668 35.9817 38.2555C36.5932 38.0194 37.1484 37.6578 37.6117 37.1941C38.0749 36.7304 38.4359 36.1747 38.6713 35.563C38.9833 34.7207 39.1482 33.8311 39.1588 32.9329C39.2268 31.4393 39.241 30.9915 39.241 27.2079C39.241 23.4243 39.2268 22.9765 39.156 21.4829C39.1466 20.584 38.9827 19.6934 38.6713 18.85ZM27.6238 34.486C26.1843 34.486 24.7772 34.0592 23.5803 33.2595C22.3834 32.4597 21.4505 31.323 20.8997 29.9931C20.3488 28.6632 20.2047 27.1998 20.4855 25.788C20.7663 24.3762 21.4595 23.0794 22.4774 22.0615C23.4952 21.0436 24.7921 20.3505 26.2039 20.0696C27.6157 19.7888 29.0791 19.933 30.409 20.4838C31.7389 21.0347 32.8756 21.9675 33.6753 23.1644C34.4751 24.3613 34.9019 25.7684 34.9019 27.2079C34.9019 29.1382 34.1351 30.9894 32.7702 32.3543C31.4053 33.7192 29.5541 34.486 27.6238 34.486ZM35.1882 21.344C34.8518 21.344 34.5231 21.2443 34.2434 21.0575C33.9638 20.8706 33.7458 20.605 33.6171 20.2943C33.4884 19.9836 33.4547 19.6417 33.5203 19.3118C33.586 18.9819 33.7479 18.6789 33.9857 18.4411C34.2235 18.2033 34.5265 18.0413 34.8564 17.9757C35.1863 17.9101 35.5282 17.9438 35.8389 18.0725C36.1496 18.2012 36.4152 18.4192 36.6021 18.6988C36.7889 18.9785 36.8887 19.3072 36.8887 19.6436C36.8887 20.0946 36.7095 20.5271 36.3906 20.846C36.0717 21.1649 35.6392 21.344 35.1882 21.344ZM32.3483 27.2079C32.3483 28.1423 32.0712 29.0558 31.5521 29.8327C31.033 30.6097 30.2951 31.2152 29.4318 31.5728C28.5685 31.9304 27.6185 32.024 26.7021 31.8417C25.7856 31.6594 24.9438 31.2094 24.283 30.5487C23.6223 29.8879 23.1723 29.0461 22.99 28.1296C22.8077 27.2132 22.9013 26.2632 23.2589 25.3999C23.6165 24.5366 24.222 23.7987 24.999 23.2796C25.7759 22.7605 26.6894 22.4834 27.6238 22.4834C28.8768 22.4834 30.0785 22.9811 30.9645 23.8672C31.8506 24.7532 32.3483 25.9549 32.3483 27.2079ZM27.6238 0C22.2426 0 16.9822 1.59572 12.5079 4.58536C8.03356 7.57501 4.54625 11.8243 2.48695 16.7959C0.427644 21.7675 -0.111163 27.2381 0.93866 32.5159C1.98848 37.7937 4.57979 42.6417 8.38488 46.4468C12.19 50.2519 17.038 52.8432 22.3158 53.8931C27.5936 54.9429 33.0642 54.4041 38.0358 52.3448C43.0074 50.2855 47.2567 46.7982 50.2463 42.3238C53.236 37.8495 54.8317 32.5891 54.8317 27.2079C54.8317 19.9919 51.9652 13.0715 46.8627 7.96902C41.7602 2.86654 34.8398 0 27.6238 0ZM41.7096 33.0491C41.6856 34.2251 41.4623 35.3885 41.0492 36.4898C40.6852 37.431 40.1286 38.2857 39.4151 38.9992C38.7016 39.7128 37.8468 40.2694 36.9057 40.6333C35.8053 41.0461 34.6428 41.2694 33.4678 41.2937C31.9544 41.3617 31.4726 41.3787 27.6238 41.3787C23.775 41.3787 23.2932 41.3617 21.7798 41.2937C20.6047 41.2694 19.4423 41.0461 18.3419 40.6333C17.4008 40.2694 16.546 39.7128 15.8325 38.9992C15.1189 38.2857 14.5624 37.431 14.1984 36.4898C13.7856 35.3894 13.5623 34.227 13.538 33.052C13.47 31.5385 13.453 31.0567 13.453 27.2079C13.453 23.3591 13.47 22.8773 13.538 21.3639C13.5614 20.189 13.7837 19.0266 14.1955 17.9261C14.5595 16.9841 15.1164 16.1286 15.8304 15.4146C16.5445 14.7005 17.4 14.1436 18.3419 13.7797C19.4425 13.3679 20.6049 13.1456 21.7798 13.1222C23.2932 13.0541 23.775 13.0371 27.6238 13.0371C31.4726 13.0371 31.9544 13.0541 33.4678 13.1222C34.6427 13.1456 35.8051 13.3679 36.9057 13.7797C37.8471 14.144 38.702 14.701 39.4156 15.415C40.1291 16.1291 40.6856 16.9844 41.0492 17.9261C41.462 19.0265 41.6852 20.1889 41.7096 21.3639C41.7776 22.8773 41.7946 23.3591 41.7946 27.2079C41.7946 31.0567 41.7776 31.5357 41.7096 33.0491Z" fill="#EEEEEE"/>
</svg>
