<svg width="73" height="73" viewBox="0 0 73 73" fill="none" xmlns="http://www.w3.org/2000/svg">
<path d="M61.5938 45.625H57.0312C56.4262 45.625 55.846 45.8653 55.4182 46.2932C54.9903 46.721 54.75 47.3012 54.75 47.9062V63.875H9.125V18.25H29.6562C30.2613 18.25 30.8415 18.0097 31.2693 17.5818C31.6972 17.154 31.9375 16.5738 31.9375 15.9688V11.4062C31.9375 10.8012 31.6972 10.221 31.2693 9.79316C30.8415 9.36535 30.2613 9.125 29.6562 9.125H6.84375C5.02867 9.125 3.28794 9.84604 2.00449 11.1295C0.721036 12.4129 0 14.1537 0 15.9688L0 66.1562C0 67.9713 0.721036 69.7121 2.00449 70.9955C3.28794 72.279 5.02867 73 6.84375 73H57.0312C58.8463 73 60.5871 72.279 61.8705 70.9955C63.154 69.7121 63.875 67.9713 63.875 66.1562V47.9062C63.875 47.3012 63.6347 46.721 63.2068 46.2932C62.779 45.8653 62.1988 45.625 61.5938 45.625ZM69.5781 0H51.3281C48.2812 0 46.7585 3.6942 48.9043 5.8457L53.9986 10.94L19.248 45.6778C18.929 45.9957 18.6759 46.3734 18.5032 46.7893C18.3305 47.2053 18.2416 47.6512 18.2416 48.1016C18.2416 48.5519 18.3305 48.9979 18.5032 49.4138C18.6759 49.8298 18.929 50.2075 19.248 50.5254L22.4803 53.752C22.7982 54.071 23.1759 54.3241 23.5919 54.4968C24.0078 54.6695 24.4538 54.7584 24.9041 54.7584C25.3545 54.7584 25.8004 54.6695 26.2164 54.4968C26.6323 54.3241 27.01 54.071 27.3279 53.752L62.0614 19.0085L67.1543 24.0957C69.293 26.2344 73 24.7373 73 21.6719V3.42188C73 2.51434 72.6395 1.64397 71.9978 1.00224C71.356 0.360518 70.4857 0 69.5781 0Z" fill="#9F7E8D"/>
</svg>
