<svg width="55" height="55" viewBox="0 0 55 55" fill="none" xmlns="http://www.w3.org/2000/svg">
<path d="M27.2079 0C12.1812 0 0 12.1812 0 27.2079C0 42.2346 12.1812 54.4159 27.2079 54.4159C42.2346 54.4159 54.4159 42.2346 54.4159 27.2079C54.4159 12.1812 42.2346 0 27.2079 0ZM20.5477 38.485H15.038V20.7545H20.5477V38.485ZM17.7588 18.5779C16.0187 18.5779 14.8935 17.3451 14.8935 15.8203C14.8935 14.2643 16.0527 13.0683 17.8297 13.0683C19.6067 13.0683 20.695 14.2643 20.729 15.8203C20.729 17.3451 19.6067 18.5779 17.7588 18.5779ZM40.6702 38.485H35.1606V28.659C35.1606 26.3719 34.3613 24.8187 32.3689 24.8187C30.847 24.8187 29.9429 25.8702 29.5433 26.882C29.3959 27.2419 29.3591 27.7521 29.3591 28.2594V38.4822H23.8466V26.4087C23.8466 24.1952 23.7758 22.3445 23.7021 20.7517H28.489L28.7412 23.2146H28.8517C29.5773 22.0583 31.3543 20.3521 34.3273 20.3521C37.9522 20.3521 40.6702 22.781 40.6702 28.0015V38.485Z" fill="#EEEEEE"/>
</svg>
