<svg width="26" height="18" viewBox="0 0 26 18" fill="none" xmlns="http://www.w3.org/2000/svg">
<path d="M13.625 15.65C14.6383 15.0833 15.6604 14.675 16.6912 14.425C17.7221 14.175 18.7833 14.0492 19.875 14.0475C20.625 14.0475 21.3954 14.1183 22.1863 14.26C22.9771 14.4017 23.665 14.5971 24.25 14.8462V2.35125C23.675 2.02708 23.0096 1.79625 22.2537 1.65875C21.4979 1.52125 20.705 1.4525 19.875 1.4525C18.7833 1.4525 17.6946 1.61333 16.6087 1.935C15.5221 2.2575 14.5275 2.74083 13.625 3.385V15.65ZM13 17.4625C11.9833 16.7658 10.8917 16.2312 9.725 15.8587C8.55833 15.4862 7.35833 15.2996 6.125 15.2987C5.10083 15.2987 4.0925 15.4425 3.1 15.73C2.10833 16.0192 1.24167 16.4008 0.5 16.875V1.5875C1.20833 1.15416 2.05833 0.814997 3.05 0.569997C4.04083 0.32333 5.06583 0.199997 6.125 0.199997C7.35 0.199997 8.54417 0.376247 9.7075 0.728747C10.8725 1.08208 11.97 1.595 13 2.2675C14.0308 1.595 15.1283 1.0825 16.2925 0.729997C17.4567 0.377497 18.6508 0.201247 19.875 0.201247C20.9342 0.201247 21.9554 0.323747 22.9388 0.568747C23.9221 0.813747 24.7758 1.15291 25.5 1.58625V16.875C24.7625 16.4 23.8967 16.0187 22.9025 15.7312C21.9083 15.4421 20.8992 15.2975 19.875 15.2975C18.6417 15.2975 17.4417 15.4842 16.275 15.8575C15.1083 16.2308 14.0167 16.7658 13 17.4625ZM15.3563 5.99125V4.82875C16.0271 4.48875 16.7458 4.23375 17.5125 4.06375C18.2792 3.89375 19.0667 3.80875 19.875 3.80875C20.3367 3.80875 20.78 3.83833 21.205 3.8975C21.6292 3.9575 22.0675 4.04166 22.52 4.15V5.285C22.0833 5.14583 21.6583 5.04916 21.245 4.995C20.83 4.94166 20.3733 4.915 19.875 4.915C19.0667 4.915 18.2783 5.00583 17.51 5.1875C16.74 5.36916 16.0217 5.63708 15.355 5.99125M15.355 12.8187V11.6062C15.995 11.2671 16.7104 11.0125 17.5012 10.8425C18.2921 10.6725 19.0833 10.5875 19.875 10.5875C20.3367 10.5875 20.78 10.6175 21.205 10.6775C21.6292 10.7358 22.0675 10.8196 22.52 10.9287V12.0637C22.0833 11.9246 21.6583 11.8279 21.245 11.7737C20.83 11.7204 20.3733 11.6937 19.875 11.6937C19.0667 11.6937 18.2783 11.7917 17.51 11.9875C16.74 12.1825 16.0217 12.4596 15.355 12.8187ZM15.355 9.42875V8.2175C16.0267 7.8775 16.7458 7.62291 17.5125 7.45375C18.2792 7.28458 19.0667 7.19958 19.875 7.19875C20.3367 7.19875 20.7796 7.22791 21.2038 7.28625C21.6287 7.34625 22.0671 7.43083 22.5187 7.54V8.675C22.0829 8.535 21.6579 8.43833 21.2437 8.385C20.8296 8.33083 20.3733 8.30375 19.875 8.30375C19.0667 8.30375 18.2783 8.40291 17.51 8.60125C16.74 8.79875 16.0217 9.07458 15.355 9.42875Z" fill="#698B11"/>
</svg>
