<svg width="20" height="20" viewBox="0 0 20 20" fill="none" xmlns="http://www.w3.org/2000/svg">
<path d="M18.1267 12.5017C17.1362 12.915 16.0733 13.1269 15 13.125C12.8451 13.125 10.7785 12.269 9.25476 10.7452C7.73102 9.22151 6.875 7.15489 6.875 5C6.875 3.89167 7.09667 2.83584 7.49833 1.87334C6.0177 2.49066 4.75293 3.53246 3.86344 4.86744C2.97394 6.20242 2.49953 7.77083 2.5 9.375C2.5 11.5299 3.35602 13.5965 4.87976 15.1202C6.40349 16.644 8.47012 17.5 10.625 17.5C12.2292 17.5005 13.7976 17.0261 15.1326 16.1366C16.4675 15.2471 17.5093 13.9823 18.1267 12.5017Z" stroke="#EEEEEE" stroke-width="1.5" stroke-linecap="round" stroke-linejoin="round"/>
</svg>
