<svg width="20" height="20" viewBox="0 0 20 20" fill="none" xmlns="http://www.w3.org/2000/svg">
<path d="M10 15.8333C10.2041 15.8334 10.4011 15.9083 10.5537 16.0439C10.7062 16.1796 10.8036 16.3665 10.8275 16.5692L10.8333 16.6667V17.5C10.8331 17.7124 10.7518 17.9167 10.606 18.0711C10.4602 18.2256 10.2609 18.3185 10.0489 18.331C9.83681 18.3434 9.62803 18.2744 9.46515 18.1381C9.30227 18.0018 9.1976 17.8084 9.17251 17.5975L9.16668 17.5V16.6667C9.16668 16.4457 9.25448 16.2337 9.41076 16.0774C9.56704 15.9211 9.779 15.8333 10 15.8333ZM15.2608 14.0917L15.3392 14.1608L15.9225 14.7442C16.072 14.8941 16.1587 15.0954 16.1652 15.307C16.1717 15.5186 16.0973 15.7248 15.9573 15.8836C15.8173 16.0424 15.6221 16.1419 15.4113 16.162C15.2005 16.1821 14.99 16.1212 14.8225 15.9917L14.7442 15.9225L14.1608 15.3392C14.017 15.1956 13.9306 15.0045 13.9179 14.8017C13.9051 14.5989 13.9669 14.3984 14.0916 14.238C14.2163 14.0776 14.3954 13.9682 14.595 13.9305C14.7947 13.8928 15.0012 13.9294 15.1758 14.0333L15.2608 14.0917ZM5.83918 14.1608C5.98266 14.3043 6.06885 14.4952 6.08159 14.6978C6.09432 14.9003 6.03272 15.1005 5.90835 15.2608L5.83918 15.3392L5.25585 15.9225C5.10588 16.072 4.90465 16.1587 4.69303 16.1652C4.4814 16.1717 4.27525 16.0973 4.11645 15.9573C3.95764 15.8173 3.85809 15.622 3.83801 15.4113C3.81794 15.2005 3.87884 14.99 4.00835 14.8225L4.07751 14.7442L4.66085 14.1608C4.81712 14.0046 5.02904 13.9169 5.25001 13.9169C5.47098 13.9169 5.68291 14.0046 5.83918 14.1608ZM3.33335 9.16667C3.54575 9.16691 3.75004 9.24824 3.90449 9.39404C4.05893 9.53985 4.15187 9.73913 4.16432 9.95117C4.17677 10.1632 4.10778 10.372 3.97146 10.5349C3.83513 10.6977 3.64176 10.8024 3.43085 10.8275L3.33335 10.8333H2.50001C2.28761 10.8331 2.08332 10.7518 1.92887 10.606C1.77443 10.4602 1.68148 10.2609 1.66904 10.0488C1.65659 9.83681 1.72557 9.62802 1.8619 9.46514C1.99823 9.30227 2.1916 9.19759 2.40251 9.1725L2.50001 9.16667H3.33335ZM17.5 9.16667C17.7124 9.16691 17.9167 9.24824 18.0712 9.39404C18.2256 9.53985 18.3185 9.73913 18.331 9.95117C18.3434 10.1632 18.2745 10.372 18.1381 10.5349C18.0018 10.6977 17.8084 10.8024 17.5975 10.8275L17.5 10.8333H16.6667C16.4543 10.8331 16.25 10.7518 16.0955 10.606C15.9411 10.4602 15.8482 10.2609 15.8357 10.0488C15.8233 9.83681 15.8922 9.62802 16.0286 9.46514C16.1649 9.30227 16.3583 9.19759 16.5692 9.1725L16.6667 9.16667H17.5ZM5.17751 4.00834L5.25585 4.07751L5.83918 4.66084C5.98864 4.8108 6.07541 5.01203 6.08187 5.22366C6.08833 5.43528 6.014 5.64143 5.87397 5.80024C5.73394 5.95904 5.53872 6.05859 5.32795 6.07867C5.11718 6.09875 4.90667 6.03785 4.73918 5.90834L4.66085 5.83917L4.07751 5.25584C3.93425 5.11224 3.84829 4.92132 3.83573 4.71886C3.82318 4.51641 3.8849 4.31633 4.00931 4.15613C4.13373 3.99593 4.31231 3.88661 4.51157 3.84866C4.71083 3.81072 4.91709 3.84675 5.09168 3.95L5.17751 4.00834ZM15.9225 4.07751C16.066 4.221 16.1522 4.41192 16.1649 4.61444C16.1777 4.81696 16.1161 5.01717 15.9917 5.1775L15.9225 5.25584L15.3392 5.83917C15.1892 5.98863 14.988 6.0754 14.7764 6.08186C14.5647 6.08832 14.3586 6.01399 14.1998 5.87396C14.041 5.73394 13.9414 5.53871 13.9213 5.32794C13.9013 5.11717 13.9622 4.90666 14.0917 4.73917L14.1608 4.66084L14.7442 4.07751C14.9005 3.92128 15.1124 3.83352 15.3333 3.83352C15.5543 3.83352 15.7662 3.92128 15.9225 4.07751ZM10 1.66667C10.2041 1.6667 10.4011 1.74164 10.5537 1.87727C10.7062 2.0129 10.8036 2.1998 10.8275 2.4025L10.8333 2.50001V3.33334C10.8331 3.54574 10.7518 3.75003 10.606 3.90448C10.4602 4.05893 10.2609 4.15187 10.0489 4.16431C9.83681 4.17676 9.62803 4.10778 9.46515 3.97145C9.30227 3.83513 9.1976 3.64175 9.17251 3.43084L9.16668 3.33334V2.50001C9.16668 2.27899 9.25448 2.06703 9.41076 1.91075C9.56704 1.75447 9.779 1.66667 10 1.66667ZM10 5.83334C10.8164 5.83329 11.6148 6.07308 12.2961 6.52292C12.9774 6.97276 13.5115 7.61283 13.8321 8.36364C14.1528 9.11444 14.2458 9.94289 14.0996 10.7461C13.9534 11.5493 13.5745 12.2919 13.0099 12.8816C12.4453 13.4712 11.7199 13.8821 10.9238 14.063C10.1277 14.244 9.29599 14.1871 8.53196 13.8994C7.76793 13.6117 7.10525 13.1059 6.62623 12.4448C6.1472 11.7837 5.87294 10.9965 5.83751 10.1808L5.83335 10L5.83751 9.81917C5.88411 8.74646 6.34302 7.73315 7.11853 6.99055C7.89404 6.24796 8.92629 5.8334 10 5.83334Z" fill="#EEEEEE"/>
</svg>
