<svg width="56" height="55" viewBox="0 0 56 55" fill="none" xmlns="http://www.w3.org/2000/svg">
<path d="M28.0396 0C13.0145 0 0.831711 12.1828 0.831711 27.2079C0.831711 42.233 13.0145 54.4159 28.0396 54.4159C43.0647 54.4159 55.2476 42.233 55.2476 27.2079C55.2476 12.1828 43.0647 0 28.0396 0ZM41.1152 20.5092C41.1335 20.7946 41.1335 21.0922 41.1335 21.3837C41.1335 30.2992 34.3436 40.569 21.9361 40.569C18.11 40.569 14.5632 39.4576 11.5752 37.5445C12.1218 37.6052 12.6441 37.6295 13.2028 37.6295C16.3609 37.6295 19.2639 36.5607 21.5778 34.7508C18.614 34.6901 16.124 32.7467 15.2738 30.0745C16.3123 30.2263 17.2476 30.2263 18.3164 29.953C16.7904 29.643 15.4188 28.8142 14.4346 27.6074C13.4503 26.4007 12.9143 24.8904 12.9174 23.3332V23.2482C13.8101 23.7523 14.8608 24.062 15.96 24.1045C15.036 23.4887 14.2781 22.6543 13.7537 21.6754C13.2293 20.6965 12.9546 19.6034 12.9538 18.4929C12.9538 17.2357 13.2818 16.0879 13.8709 15.0919C15.5647 17.177 17.6783 18.8824 20.0744 20.0972C22.4705 21.312 25.0954 22.009 27.7785 22.1429C26.825 17.5576 30.2503 13.8469 34.3679 13.8469C36.3113 13.8469 38.0604 14.6607 39.2933 15.9725C40.8176 15.6871 42.2752 15.1162 43.5749 14.351C43.0708 15.9118 42.0141 17.2297 40.6112 18.0617C41.9716 17.9159 43.2834 17.5394 44.498 17.011C43.581 18.3593 42.4331 19.5557 41.1152 20.5092Z" fill="#EEEEEE"/>
</svg>
