<svg width="128" height="102" viewBox="0 0 128 102" fill="none" xmlns="http://www.w3.org/2000/svg">
<path d="M25.6018 19.125C30.9015 19.125 35.2013 14.8418 35.2013 9.5625C35.2013 4.2832 30.9015 0 25.6018 0C20.302 0 16.0022 4.2832 16.0022 9.5625C16.0022 14.8418 20.302 19.125 25.6018 19.125ZM102.398 19.125C107.698 19.125 111.998 14.8418 111.998 9.5625C111.998 4.2832 107.698 0 102.398 0C97.0984 0 92.7987 4.2832 92.7987 9.5625C92.7987 14.8418 97.0984 19.125 102.398 19.125ZM127.537 93.2543L118.737 71.3402L110.518 80.584L110.118 84.2098L115.658 97.9957C116.658 100.486 119.057 102 121.597 102C122.397 102 123.197 101.861 123.977 101.542C127.257 100.227 128.857 96.5215 127.537 93.2543ZM120.697 51.4582L116.998 35.4809C116.078 31.4965 113.278 28.1496 109.498 26.5359C105.798 24.9422 101.698 25.2012 98.2784 27.1934C93.7386 29.8629 90.3388 34.0664 88.6588 39.027L86.3989 45.7805L83.1991 47.8125V28.6875C83.1991 26.9344 81.7592 25.5 79.9993 25.5H48.0007C46.2408 25.5 44.8009 26.9344 44.8009 28.6875V47.8125L41.581 45.7805L39.3212 39.027C37.6612 34.0465 34.2414 29.8629 29.7016 27.1934C26.2618 25.2012 22.182 24.9422 18.4821 26.5359C14.7023 28.1496 11.9024 31.4965 10.9825 35.4809L7.30265 51.4582C6.3827 55.4426 7.44265 59.666 10.1825 62.7539L23.6219 77.8746L25.6418 96.3223C26.0018 99.5695 28.7617 102 32.0015 102C32.2415 102 32.4615 101.98 32.7015 101.96C36.2213 101.582 38.7412 98.434 38.3612 94.9277L36.3413 76.4402C36.0413 73.8504 34.9614 71.4398 33.2214 69.4676L24.5618 59.7059L28.0817 45.7008L29.4416 49.7648C30.2616 52.2551 31.8215 54.4266 34.3414 56.2594L44.5609 62.734C45.4809 63.3117 46.9808 63.6504 48.0007 63.7301H79.9993C81.0192 63.6504 82.5191 63.3117 83.4391 62.734L93.6586 56.2594C96.1785 54.4266 97.7384 52.275 98.5584 49.7648L99.9183 45.7008L103.438 59.7059L94.7786 69.4676C93.0386 71.4398 91.9587 73.8504 91.6587 76.4402L89.6388 94.9277C89.2588 98.434 91.7987 101.582 95.2985 101.96C95.5385 101.98 95.7585 102 95.9985 102C99.2183 102 101.998 99.5895 102.358 96.3223L104.378 77.8746L117.817 62.7539C120.537 59.666 121.617 55.4426 120.697 51.4582ZM9.26256 71.3402L0.462974 93.2543C-0.856964 96.5215 0.742961 100.227 4.02281 101.542C7.38265 102.857 11.0425 101.203 12.3424 97.9957L17.8822 84.2098L17.4822 80.584L9.26256 71.3402Z" fill="#9F7E8D"/>
</svg>
